<?xml version="1.0" encoding="utf-8"?>
<!-- Generator: Adobe Illustrator 25.3.1, SVG Export Plug-In . SVG Version: 6.00 Build 0)  -->
<svg version="1.1" id="Layer_1" xmlns="http://www.w3.org/2000/svg" xmlns:xlink="http://www.w3.org/1999/xlink" x="0px" y="0px"
	 viewBox="0 0 10.5 10.5" style="enable-background:new 0 0 10.5 10.5;" xml:space="preserve">
<style type="text/css">
	.st0{fill:#E00E5F;}
</style>
<g id="Layer_2_1_">
	<g id="Layer_1-2">
		<path class="st0" d="M5.9,5.2l4.4-4.4c0.2-0.2,0.2-0.5,0-0.7c0,0,0,0,0,0c-0.2-0.2-0.5-0.2-0.7,0c0,0,0,0,0,0L5.2,4.5L0.9,0.2
			C0.7,0,0.4-0.1,0.2,0.1c0,0,0,0,0,0C0,0.3-0.1,0.6,0.1,0.8c0,0,0,0,0,0l4.4,4.4L0.2,9.6c-0.2,0.2-0.2,0.5,0,0.7c0,0,0,0,0,0
			c0.1,0.1,0.2,0.2,0.3,0.1c0.1,0,0.3-0.1,0.4-0.1l4.4-4.4l4.4,4.4c0.1,0.1,0.2,0.2,0.4,0.1c0.3,0,0.5-0.2,0.5-0.5
			c0-0.1-0.1-0.3-0.1-0.3L5.9,5.2z"/>
	</g>
</g>
</svg>
